<svg viewBox="0 0 1118 823" fill="none" xmlns="http://www.w3.org/2000/svg">
<rect x="718" y="279" width="400" height="272" rx="43" fill="#B8D4FF"/>
<path d="M835.43 435.537C832.899 435.537 830.642 435.102 828.661 434.233C826.692 433.364 825.126 432.156 823.963 430.609C822.812 429.049 822.186 427.24 822.083 425.182H826.916C827.018 426.447 827.453 427.54 828.22 428.461C828.987 429.369 829.99 430.072 831.23 430.57C832.47 431.069 833.845 431.318 835.353 431.318C837.041 431.318 838.536 431.024 839.84 430.436C841.144 429.848 842.167 429.03 842.909 427.982C843.65 426.933 844.021 425.719 844.021 424.338C844.021 422.893 843.663 421.621 842.947 420.522C842.231 419.41 841.183 418.54 839.802 417.914C838.421 417.288 836.734 416.974 834.74 416.974H831.595V412.756H834.74C836.299 412.756 837.667 412.474 838.843 411.912C840.032 411.349 840.959 410.557 841.624 409.534C842.301 408.511 842.64 407.31 842.64 405.929C842.64 404.599 842.346 403.442 841.758 402.458C841.17 401.474 840.339 400.707 839.265 400.157C838.204 399.607 836.951 399.332 835.507 399.332C834.152 399.332 832.873 399.582 831.671 400.08C830.483 400.566 829.511 401.276 828.757 402.209C828.002 403.129 827.593 404.241 827.529 405.545H822.927C823.004 403.487 823.624 401.685 824.787 400.138C825.951 398.578 827.472 397.364 829.351 396.494C831.243 395.625 833.321 395.19 835.583 395.19C838.012 395.19 840.096 395.683 841.835 396.667C843.573 397.638 844.909 398.923 845.843 400.521C846.776 402.119 847.242 403.845 847.242 405.699C847.242 407.911 846.661 409.796 845.497 411.356C844.347 412.915 842.781 413.996 840.799 414.597V414.903C843.279 415.312 845.216 416.367 846.61 418.067C848.003 419.755 848.7 421.845 848.7 424.338C848.7 426.473 848.118 428.391 846.955 430.091C845.804 431.778 844.232 433.108 842.237 434.08C840.243 435.051 837.974 435.537 835.43 435.537ZM856.62 435V405.545H868.662C871.833 405.545 874.351 406.261 876.218 407.693C878.084 409.125 879.017 411.017 879.017 413.369C879.017 415.159 878.487 416.546 877.426 417.531C876.365 418.502 875.003 419.161 873.341 419.506C874.428 419.659 875.483 420.043 876.505 420.656C877.541 421.27 878.397 422.114 879.075 423.188C879.752 424.249 880.091 425.553 880.091 427.099C880.091 428.608 879.708 429.957 878.941 431.146C878.174 432.335 877.074 433.274 875.642 433.964C874.21 434.655 872.497 435 870.503 435H856.62ZM860.915 430.858H870.503C872.063 430.858 873.284 430.487 874.166 429.746C875.048 429.004 875.489 427.994 875.489 426.716C875.489 425.195 875.048 423.999 874.166 423.13C873.284 422.248 872.063 421.807 870.503 421.807H860.915V430.858ZM860.915 417.895H868.662C869.877 417.895 870.919 417.729 871.788 417.396C872.657 417.051 873.322 416.565 873.782 415.939C874.255 415.3 874.492 414.545 874.492 413.676C874.492 412.436 873.974 411.464 872.938 410.761C871.903 410.045 870.478 409.688 868.662 409.688H860.915V417.895ZM886.942 435V405.545H891.467V435H886.942ZM889.243 400.636C888.361 400.636 887.6 400.336 886.961 399.735C886.335 399.134 886.021 398.412 886.021 397.568C886.021 396.724 886.335 396.002 886.961 395.401C887.6 394.8 888.361 394.5 889.243 394.5C890.125 394.5 890.879 394.8 891.506 395.401C892.145 396.002 892.465 396.724 892.465 397.568C892.465 398.412 892.145 399.134 891.506 399.735C890.879 400.336 890.125 400.636 889.243 400.636ZM896.611 443.438V430.781H899.066C899.667 430.155 900.185 429.477 900.619 428.749C901.054 428.02 901.431 427.157 901.751 426.16C902.083 425.15 902.364 423.923 902.594 422.478C902.824 421.021 903.029 419.263 903.208 417.205L904.205 405.545H922.921V430.781H927.447V443.438H922.921V435H901.137V443.438H896.611ZM904.205 430.781H918.396V409.764H908.424L907.657 417.205C907.337 420.286 906.941 422.977 906.468 425.278C905.995 427.579 905.241 429.413 904.205 430.781ZM933.454 435V405.545H937.979V418.355H940.971L951.556 405.545H957.385L945.496 419.736L957.539 435H951.709L942.044 422.574H937.979V435H933.454ZM966.983 428.327L981.173 405.545H986.389V435H981.864V412.219L967.75 435H962.457V405.545H966.983V428.327ZM1000.58 423.955V423.724C1000.61 421.283 1000.87 419.339 1001.35 417.895C1001.84 416.45 1002.53 415.281 1003.42 414.386C1004.32 413.491 1005.39 412.666 1006.64 411.912C1007.4 411.452 1008.08 410.908 1008.68 410.282C1009.28 409.643 1009.75 408.908 1010.1 408.077C1010.45 407.246 1010.63 406.325 1010.63 405.315C1010.63 404.062 1010.34 402.976 1009.75 402.055C1009.16 401.135 1008.38 400.425 1007.39 399.927C1006.41 399.428 1005.31 399.179 1004.11 399.179C1003.06 399.179 1002.05 399.396 1001.08 399.831C1000.11 400.266 999.3 400.95 998.648 401.883C997.996 402.816 997.619 404.037 997.516 405.545H992.684C992.786 403.372 993.349 401.512 994.371 399.965C995.407 398.418 996.768 397.236 998.456 396.418C1000.16 395.599 1002.04 395.19 1004.11 395.19C1006.36 395.19 1008.32 395.638 1009.98 396.533C1011.66 397.428 1012.95 398.655 1013.85 400.214C1014.77 401.774 1015.23 403.551 1015.23 405.545C1015.23 406.952 1015.02 408.224 1014.58 409.362C1014.16 410.499 1013.55 411.516 1012.74 412.411C1011.95 413.305 1010.99 414.098 1009.87 414.788C1008.74 415.491 1007.84 416.233 1007.16 417.013C1006.48 417.78 1005.99 418.694 1005.69 419.755C1005.38 420.816 1005.21 422.139 1005.19 423.724V423.955H1000.58ZM1003.04 435.307C1002.09 435.307 1001.28 434.968 1000.6 434.29C999.926 433.613 999.587 432.801 999.587 431.855C999.587 430.909 999.926 430.097 1000.6 429.42C1001.28 428.742 1002.09 428.403 1003.04 428.403C1003.98 428.403 1004.8 428.742 1005.47 429.42C1006.15 430.097 1006.49 430.909 1006.49 431.855C1006.49 432.482 1006.33 433.057 1006.01 433.581C1005.7 434.105 1005.29 434.527 1004.76 434.847C1004.25 435.153 1003.68 435.307 1003.04 435.307Z" fill="black"/>
<rect width="400" height="272" rx="43" fill="#B8D4FF"/>
<path d="M109.2 91V51.7273H132.902V55.946H113.956V68.2188H123.927C126.74 68.2188 129.111 68.679 131.042 69.5994C132.985 70.5199 134.455 71.8175 135.452 73.4922C136.462 75.1669 136.967 77.142 136.967 79.4176C136.967 81.6932 136.462 83.7003 135.452 85.4389C134.455 87.1776 132.985 88.5391 131.042 89.5234C129.111 90.5078 126.74 91 123.927 91H109.2ZM113.956 86.858H123.927C125.717 86.858 127.232 86.5 128.472 85.7841C129.725 85.0554 130.671 84.1222 131.31 82.9844C131.962 81.8338 132.288 80.6193 132.288 79.3409C132.288 77.4616 131.566 75.8445 130.121 74.4893C128.677 73.1214 126.612 72.4375 123.927 72.4375H113.956V86.858ZM152.85 91.6903C150.983 91.6903 149.289 91.3388 147.768 90.6357C146.247 89.9197 145.039 88.8906 144.144 87.5483C143.249 86.1932 142.801 84.5568 142.801 82.6392C142.801 80.9517 143.134 79.5838 143.799 78.5355C144.463 77.4744 145.352 76.6435 146.464 76.0426C147.576 75.4418 148.804 74.9943 150.146 74.7003C151.501 74.3935 152.862 74.1506 154.23 73.9716C156.02 73.7415 157.471 73.5689 158.583 73.4538C159.708 73.326 160.527 73.1151 161.038 72.821C161.562 72.527 161.824 72.0156 161.824 71.2869V71.1335C161.824 69.2415 161.306 67.7713 160.271 66.723C159.248 65.6747 157.695 65.1506 155.611 65.1506C153.451 65.1506 151.757 65.6236 150.529 66.5696C149.302 67.5156 148.439 68.5256 147.941 69.5994L143.645 68.0653C144.412 66.2756 145.435 64.8821 146.713 63.8849C148.005 62.875 149.411 62.1719 150.932 61.7756C152.466 61.3665 153.975 61.1619 155.458 61.1619C156.404 61.1619 157.49 61.277 158.718 61.5071C159.958 61.7244 161.153 62.1783 162.304 62.8686C163.467 63.5589 164.432 64.6009 165.199 65.9943C165.966 67.3878 166.35 69.2543 166.35 71.5938V91H161.824V87.0114H161.594C161.287 87.6506 160.776 88.3345 160.06 89.0632C159.344 89.7919 158.392 90.4119 157.203 90.9233C156.014 91.4347 154.563 91.6903 152.85 91.6903ZM153.54 87.625C155.33 87.625 156.838 87.2734 158.066 86.5703C159.306 85.8672 160.239 84.9595 160.865 83.8473C161.505 82.7351 161.824 81.5653 161.824 80.3381V76.196C161.632 76.4261 161.21 76.6371 160.559 76.8288C159.919 77.0078 159.178 77.1676 158.334 77.3082C157.503 77.4361 156.691 77.5511 155.899 77.6534C155.119 77.7429 154.486 77.8196 154 77.8835C152.824 78.0369 151.725 78.2862 150.702 78.6314C149.692 78.9638 148.874 79.4687 148.247 80.1463C147.634 80.8111 147.327 81.7187 147.327 82.8693C147.327 84.4418 147.909 85.6307 149.072 86.4361C150.248 87.2287 151.737 87.625 153.54 87.625ZM192.789 61.5455V65.7642H179.135V91H174.61V61.5455H192.789ZM206.533 91.6903C204.667 91.6903 202.973 91.3388 201.452 90.6357C199.93 89.9197 198.722 88.8906 197.827 87.5483C196.932 86.1932 196.485 84.5568 196.485 82.6392C196.485 80.9517 196.817 79.5838 197.482 78.5355C198.147 77.4744 199.035 76.6435 200.148 76.0426C201.26 75.4418 202.487 74.9943 203.829 74.7003C205.185 74.3935 206.546 74.1506 207.914 73.9716C209.704 73.7415 211.155 73.5689 212.267 73.4538C213.392 73.326 214.21 73.1151 214.722 72.821C215.246 72.527 215.508 72.0156 215.508 71.2869V71.1335C215.508 69.2415 214.99 67.7713 213.954 66.723C212.932 65.6747 211.378 65.1506 209.295 65.1506C207.134 65.1506 205.44 65.6236 204.213 66.5696C202.986 67.5156 202.123 68.5256 201.624 69.5994L197.329 68.0653C198.096 66.2756 199.119 64.8821 200.397 63.8849C201.688 62.875 203.094 62.1719 204.616 61.7756C206.15 61.3665 207.658 61.1619 209.141 61.1619C210.087 61.1619 211.174 61.277 212.401 61.5071C213.641 61.7244 214.837 62.1783 215.987 62.8686C217.15 63.5589 218.116 64.6009 218.883 65.9943C219.65 67.3878 220.033 69.2543 220.033 71.5938V91H215.508V87.0114H215.278C214.971 87.6506 214.459 88.3345 213.744 89.0632C213.028 89.7919 212.075 90.4119 210.886 90.9233C209.697 91.4347 208.246 91.6903 206.533 91.6903ZM207.224 87.625C209.013 87.625 210.522 87.2734 211.749 86.5703C212.989 85.8672 213.922 84.9595 214.549 83.8473C215.188 82.7351 215.508 81.5653 215.508 80.3381V76.196C215.316 76.4261 214.894 76.6371 214.242 76.8288C213.603 77.0078 212.861 77.1676 212.018 77.3082C211.187 77.4361 210.375 77.5511 209.582 77.6534C208.802 77.7429 208.17 77.8196 207.684 77.8835C206.508 78.0369 205.408 78.2862 204.386 78.6314C203.376 78.9638 202.557 79.4687 201.931 80.1463C201.317 80.8111 201.011 81.7187 201.011 82.8693C201.011 84.4418 201.592 85.6307 202.756 86.4361C203.932 87.2287 205.421 87.625 207.224 87.625ZM224.286 65.7642V61.5455H248.217V65.7642H238.553V91H234.027V65.7642H224.286ZM265.255 91.6136C262.596 91.6136 260.263 90.9808 258.256 89.7152C256.262 88.4496 254.702 86.679 253.577 84.4034C252.465 82.1278 251.909 79.4687 251.909 76.4261C251.909 73.358 252.465 70.6797 253.577 68.3913C254.702 66.103 256.262 64.326 258.256 63.0604C260.263 61.7947 262.596 61.1619 265.255 61.1619C267.915 61.1619 270.241 61.7947 272.236 63.0604C274.243 64.326 275.802 66.103 276.915 68.3913C278.04 70.6797 278.602 73.358 278.602 76.4261C278.602 79.4687 278.04 82.1278 276.915 84.4034C275.802 86.679 274.243 88.4496 272.236 89.7152C270.241 90.9808 267.915 91.6136 265.255 91.6136ZM265.255 87.5483C267.275 87.5483 268.937 87.0305 270.241 85.995C271.545 84.9595 272.51 83.598 273.137 81.9105C273.763 80.223 274.076 78.3949 274.076 76.4261C274.076 74.4574 273.763 72.6229 273.137 70.9226C272.51 69.2223 271.545 67.848 270.241 66.7997C268.937 65.7514 267.275 65.2273 265.255 65.2273C263.236 65.2273 261.574 65.7514 260.27 66.7997C258.966 67.848 258 69.2223 257.374 70.9226C256.748 72.6229 256.434 74.4574 256.434 76.4261C256.434 78.3949 256.748 80.223 257.374 81.9105C258 83.598 258.966 84.9595 260.27 85.995C261.574 87.0305 263.236 87.5483 265.255 87.5483ZM137.197 126.545V156H132.672V126.545H137.197ZM135.433 140.582V144.801C134.41 145.185 133.394 145.523 132.384 145.817C131.374 146.099 130.313 146.322 129.201 146.489C128.089 146.642 126.868 146.719 125.538 146.719C122.201 146.719 119.523 145.817 117.503 144.015C115.496 142.212 114.493 139.509 114.493 135.903V126.469H119.018V135.903C119.018 137.412 119.306 138.652 119.881 139.624C120.456 140.595 121.236 141.317 122.221 141.79C123.205 142.263 124.311 142.5 125.538 142.5C127.456 142.5 129.188 142.327 130.735 141.982C132.294 141.624 133.861 141.158 135.433 140.582ZM150.026 149.327L164.216 126.545H169.432V156H164.907V133.219L150.793 156H145.5V126.545H150.026V149.327ZM189.687 156.614C186.926 156.614 184.548 155.962 182.554 154.658C180.559 153.354 179.025 151.558 177.951 149.269C176.877 146.981 176.34 144.366 176.34 141.426C176.34 138.435 176.89 135.795 177.99 133.506C179.102 131.205 180.649 129.409 182.63 128.118C184.625 126.814 186.951 126.162 189.61 126.162C191.681 126.162 193.548 126.545 195.21 127.312C196.872 128.08 198.233 129.153 199.294 130.534C200.355 131.915 201.014 133.526 201.269 135.366H196.744C196.399 134.024 195.632 132.835 194.443 131.8C193.267 130.751 191.681 130.227 189.687 130.227C187.923 130.227 186.376 130.687 185.046 131.608C183.73 132.516 182.701 133.8 181.959 135.462C181.23 137.112 180.866 139.048 180.866 141.273C180.866 143.548 181.224 145.53 181.94 147.217C182.669 148.905 183.691 150.215 185.008 151.148C186.338 152.082 187.897 152.548 189.687 152.548C190.863 152.548 191.931 152.344 192.889 151.935C193.848 151.526 194.66 150.938 195.325 150.17C195.99 149.403 196.463 148.483 196.744 147.409H201.269C201.014 149.148 200.381 150.714 199.371 152.107C198.374 153.488 197.051 154.587 195.402 155.406C193.765 156.211 191.86 156.614 189.687 156.614ZM205.565 130.764V126.545H229.497V130.764H219.832V156H215.306V130.764H205.565ZM246.535 156.614C243.876 156.614 241.543 155.981 239.535 154.715C237.541 153.45 235.981 151.679 234.856 149.403C233.744 147.128 233.188 144.469 233.188 141.426C233.188 138.358 233.744 135.68 234.856 133.391C235.981 131.103 237.541 129.326 239.535 128.06C241.543 126.795 243.876 126.162 246.535 126.162C249.194 126.162 251.521 126.795 253.515 128.06C255.522 129.326 257.082 131.103 258.194 133.391C259.319 135.68 259.881 138.358 259.881 141.426C259.881 144.469 259.319 147.128 258.194 149.403C257.082 151.679 255.522 153.45 253.515 154.715C251.521 155.981 249.194 156.614 246.535 156.614ZM246.535 152.548C248.555 152.548 250.217 152.031 251.521 150.995C252.824 149.96 253.79 148.598 254.416 146.911C255.043 145.223 255.356 143.395 255.356 141.426C255.356 139.457 255.043 137.623 254.416 135.923C253.79 134.222 252.824 132.848 251.521 131.8C250.217 130.751 248.555 130.227 246.535 130.227C244.515 130.227 242.853 130.751 241.549 131.8C240.245 132.848 239.28 134.222 238.653 135.923C238.027 137.623 237.714 139.457 237.714 141.426C237.714 143.395 238.027 145.223 238.653 146.911C239.28 148.598 240.245 149.96 241.549 150.995C242.853 152.031 244.515 152.548 246.535 152.548ZM266.79 156V126.545H271.315V156H266.79ZM263.568 121.636C262.763 121.636 262.053 121.33 261.439 120.716C260.813 120.089 260.5 119.374 260.5 118.568C260.5 117.686 260.813 116.957 261.439 116.382C262.053 115.794 262.763 115.5 263.568 115.5C264.45 115.5 265.179 115.794 265.754 116.382C266.342 116.957 266.636 117.686 266.636 118.568C266.636 119.374 266.342 120.089 265.754 120.716C265.179 121.33 264.45 121.636 263.568 121.636ZM274.613 121.636C273.808 121.636 273.092 121.33 272.466 120.716C271.852 120.089 271.545 119.374 271.545 118.568C271.545 117.686 271.852 116.957 272.466 116.382C273.092 115.794 273.808 115.5 274.613 115.5C275.495 115.5 276.224 115.794 276.799 116.382C277.388 116.957 277.682 117.686 277.682 118.568C277.682 119.374 277.388 120.089 276.799 120.716C276.224 121.33 275.495 121.636 274.613 121.636ZM104.42 232.045V191.545H108.793V196.224H109.329C109.662 195.713 110.122 195.061 110.71 194.268C111.311 193.463 112.168 192.747 113.28 192.121C114.405 191.482 115.926 191.162 117.844 191.162C120.324 191.162 122.51 191.782 124.402 193.022C126.294 194.262 127.771 196.02 128.832 198.295C129.893 200.571 130.423 203.256 130.423 206.349C130.423 209.469 129.893 212.173 128.832 214.461C127.771 216.737 126.3 218.501 124.421 219.754C122.542 220.994 120.375 221.614 117.92 221.614C116.028 221.614 114.513 221.3 113.376 220.674C112.238 220.035 111.362 219.312 110.748 218.507C110.135 217.689 109.662 217.011 109.329 216.474H108.946V232.045H104.42ZM108.869 206.273C108.869 208.497 109.195 210.46 109.847 212.16C110.499 213.847 111.452 215.17 112.704 216.129C113.957 217.075 115.491 217.548 117.307 217.548C119.199 217.548 120.778 217.05 122.043 216.053C123.322 215.043 124.28 213.687 124.92 211.987C125.572 210.274 125.898 208.369 125.898 206.273C125.898 204.202 125.578 202.335 124.939 200.673C124.312 198.999 123.36 197.675 122.082 196.704C120.816 195.719 119.224 195.227 117.307 195.227C115.466 195.227 113.919 195.694 112.666 196.627C111.413 197.548 110.467 198.839 109.828 200.501C109.189 202.15 108.869 204.074 108.869 206.273ZM145.994 221.69C144.128 221.69 142.434 221.339 140.913 220.636C139.391 219.92 138.183 218.891 137.288 217.548C136.393 216.193 135.946 214.557 135.946 212.639C135.946 210.952 136.278 209.584 136.943 208.536C137.608 207.474 138.496 206.643 139.609 206.043C140.721 205.442 141.948 204.994 143.29 204.7C144.646 204.393 146.007 204.151 147.375 203.972C149.165 203.741 150.616 203.569 151.728 203.454C152.853 203.326 153.671 203.115 154.182 202.821C154.707 202.527 154.969 202.016 154.969 201.287V201.134C154.969 199.241 154.451 197.771 153.415 196.723C152.393 195.675 150.839 195.151 148.756 195.151C146.595 195.151 144.901 195.624 143.674 196.57C142.447 197.516 141.584 198.526 141.085 199.599L136.79 198.065C137.557 196.276 138.579 194.882 139.858 193.885C141.149 192.875 142.555 192.172 144.077 191.776C145.611 191.366 147.119 191.162 148.602 191.162C149.548 191.162 150.635 191.277 151.862 191.507C153.102 191.724 154.297 192.178 155.448 192.869C156.611 193.559 157.577 194.601 158.344 195.994C159.111 197.388 159.494 199.254 159.494 201.594V221H154.969V217.011H154.739C154.432 217.651 153.92 218.335 153.204 219.063C152.489 219.792 151.536 220.412 150.347 220.923C149.158 221.435 147.707 221.69 145.994 221.69ZM146.685 217.625C148.474 217.625 149.983 217.273 151.21 216.57C152.45 215.867 153.383 214.96 154.01 213.847C154.649 212.735 154.969 211.565 154.969 210.338V206.196C154.777 206.426 154.355 206.637 153.703 206.829C153.064 207.008 152.322 207.168 151.479 207.308C150.648 207.436 149.836 207.551 149.043 207.653C148.263 207.743 147.631 207.82 147.145 207.884C145.969 208.037 144.869 208.286 143.847 208.631C142.837 208.964 142.018 209.469 141.392 210.146C140.778 210.811 140.472 211.719 140.472 212.869C140.472 214.442 141.053 215.631 142.217 216.436C143.393 217.229 144.882 217.625 146.685 217.625ZM164.609 229.438V216.781H167.064C167.665 216.155 168.183 215.477 168.617 214.749C169.052 214.02 169.429 213.157 169.749 212.16C170.081 211.15 170.362 209.923 170.592 208.478C170.823 207.021 171.027 205.263 171.206 203.205L172.203 191.545H190.919V216.781H195.445V229.438H190.919V221H169.135V229.438H164.609ZM172.203 216.781H186.394V195.764H176.422L175.655 203.205C175.335 206.286 174.939 208.977 174.466 211.278C173.993 213.579 173.239 215.413 172.203 216.781ZM213.418 221.614C210.758 221.614 208.425 220.981 206.418 219.715C204.424 218.45 202.864 216.679 201.739 214.403C200.627 212.128 200.071 209.469 200.071 206.426C200.071 203.358 200.627 200.68 201.739 198.391C202.864 196.103 204.424 194.326 206.418 193.06C208.425 191.795 210.758 191.162 213.418 191.162C216.077 191.162 218.403 191.795 220.398 193.06C222.405 194.326 223.964 196.103 225.077 198.391C226.202 200.68 226.764 203.358 226.764 206.426C226.764 209.469 226.202 212.128 225.077 214.403C223.964 216.679 222.405 218.45 220.398 219.715C218.403 220.981 216.077 221.614 213.418 221.614ZM213.418 217.548C215.437 217.548 217.099 217.031 218.403 215.995C219.707 214.96 220.672 213.598 221.299 211.911C221.925 210.223 222.239 208.395 222.239 206.426C222.239 204.457 221.925 202.623 221.299 200.923C220.672 199.222 219.707 197.848 218.403 196.8C217.099 195.751 215.437 195.227 213.418 195.227C211.398 195.227 209.736 195.751 208.432 196.8C207.128 197.848 206.163 199.222 205.536 200.923C204.91 202.623 204.597 204.457 204.597 206.426C204.597 208.395 204.91 210.223 205.536 211.911C206.163 213.598 207.128 214.96 208.432 215.995C209.736 217.031 211.398 217.548 213.418 217.548ZM245.638 221.614C242.877 221.614 240.499 220.962 238.505 219.658C236.51 218.354 234.976 216.558 233.902 214.269C232.829 211.981 232.292 209.366 232.292 206.426C232.292 203.435 232.841 200.795 233.941 198.506C235.053 196.205 236.6 194.409 238.581 193.118C240.576 191.814 242.902 191.162 245.562 191.162C247.633 191.162 249.499 191.545 251.161 192.312C252.823 193.08 254.184 194.153 255.245 195.534C256.307 196.915 256.965 198.526 257.221 200.366H252.695C252.35 199.024 251.583 197.835 250.394 196.8C249.218 195.751 247.633 195.227 245.638 195.227C243.874 195.227 242.327 195.687 240.998 196.608C239.681 197.516 238.652 198.8 237.91 200.462C237.182 202.112 236.817 204.048 236.817 206.273C236.817 208.548 237.175 210.53 237.891 212.217C238.62 213.905 239.642 215.215 240.959 216.148C242.289 217.082 243.848 217.548 245.638 217.548C246.814 217.548 247.882 217.344 248.841 216.935C249.799 216.526 250.611 215.938 251.276 215.17C251.941 214.403 252.414 213.483 252.695 212.409H257.221C256.965 214.148 256.332 215.714 255.322 217.107C254.325 218.488 253.002 219.587 251.353 220.406C249.716 221.211 247.812 221.614 245.638 221.614ZM261.516 195.764V191.545H285.448V195.764H275.783V221H271.258V195.764H261.516ZM292.049 221V191.545H296.575V221H292.049ZM294.35 186.636C293.468 186.636 292.708 186.336 292.068 185.735C291.442 185.134 291.129 184.412 291.129 183.568C291.129 182.724 291.442 182.002 292.068 181.401C292.708 180.8 293.468 180.5 294.35 180.5C295.233 180.5 295.987 180.8 296.613 181.401C297.252 182.002 297.572 182.724 297.572 183.568C297.572 184.412 297.252 185.134 296.613 185.735C295.987 186.336 295.233 186.636 294.35 186.636Z" fill="black"/>
<rect x="122" y="551" width="400" height="272" rx="43" fill="#B8D4FF"/>
<path d="M210.081 707V667.727H223.811C226.547 667.727 228.803 668.2 230.58 669.146C232.357 670.08 233.68 671.339 234.55 672.924C235.419 674.496 235.854 676.241 235.854 678.159C235.854 679.847 235.553 681.24 234.952 682.339C234.364 683.439 233.584 684.308 232.613 684.947C231.654 685.587 230.612 686.06 229.487 686.366V686.75C230.689 686.827 231.897 687.249 233.111 688.016C234.326 688.783 235.342 689.882 236.16 691.314C236.979 692.746 237.388 694.497 237.388 696.568C237.388 698.537 236.94 700.308 236.045 701.88C235.15 703.452 233.738 704.699 231.807 705.619C229.877 706.54 227.365 707 224.271 707H210.081ZM214.837 702.781H224.271C227.378 702.781 229.583 702.18 230.887 700.979C232.204 699.764 232.862 698.294 232.862 696.568C232.862 695.239 232.523 694.011 231.846 692.886C231.168 691.749 230.203 690.841 228.95 690.163C227.697 689.473 226.214 689.128 224.501 689.128H214.837V702.781ZM214.837 684.986H223.658C225.089 684.986 226.381 684.705 227.531 684.142C228.695 683.58 229.615 682.787 230.293 681.764C230.983 680.741 231.328 679.54 231.328 678.159C231.328 676.433 230.727 674.969 229.525 673.768C228.324 672.553 226.419 671.946 223.811 671.946H214.837V684.986ZM244.588 707V677.545H249.114V707H244.588ZM246.889 672.636C246.007 672.636 245.247 672.336 244.608 671.735C243.981 671.134 243.668 670.412 243.668 669.568C243.668 668.724 243.981 668.002 244.608 667.401C245.247 666.8 246.007 666.5 246.889 666.5C247.772 666.5 248.526 666.8 249.152 667.401C249.791 668.002 250.111 668.724 250.111 669.568C250.111 670.412 249.791 671.134 249.152 671.735C248.526 672.336 247.772 672.636 246.889 672.636ZM254.258 715.438V702.781H256.712C257.313 702.155 257.831 701.477 258.266 700.749C258.7 700.02 259.078 699.157 259.397 698.16C259.729 697.15 260.011 695.923 260.241 694.478C260.471 693.021 260.676 691.263 260.854 689.205L261.852 677.545H280.568V702.781H285.093V715.438H280.568V707H258.783V715.438H254.258ZM261.852 702.781H276.042V681.764H266.07L265.303 689.205C264.984 692.286 264.587 694.977 264.114 697.278C263.641 699.579 262.887 701.413 261.852 702.781ZM306.901 707V667.727H330.603V671.946H311.657V684.219H321.628C324.441 684.219 326.812 684.679 328.743 685.599C330.686 686.52 332.156 687.817 333.153 689.492C334.163 691.167 334.668 693.142 334.668 695.418C334.668 697.693 334.163 699.7 333.153 701.439C332.156 703.178 330.686 704.539 328.743 705.523C326.812 706.508 324.441 707 321.628 707H306.901ZM311.657 702.858H321.628C323.418 702.858 324.933 702.5 326.173 701.784C327.426 701.055 328.372 700.122 329.011 698.984C329.663 697.834 329.989 696.619 329.989 695.341C329.989 693.462 329.267 691.844 327.822 690.489C326.378 689.121 324.313 688.438 321.628 688.438H311.657V702.858ZM353.849 707.614C351.19 707.614 348.857 706.981 346.85 705.715C344.856 704.45 343.296 702.679 342.171 700.403C341.059 698.128 340.503 695.469 340.503 692.426C340.503 689.358 341.059 686.68 342.171 684.391C343.296 682.103 344.856 680.326 346.85 679.06C348.857 677.795 351.19 677.162 353.849 677.162C356.508 677.162 358.835 677.795 360.829 679.06C362.836 680.326 364.396 682.103 365.508 684.391C366.633 686.68 367.196 689.358 367.196 692.426C367.196 695.469 366.633 698.128 365.508 700.403C364.396 702.679 362.836 704.45 360.829 705.715C358.835 706.981 356.508 707.614 353.849 707.614ZM353.849 703.548C355.869 703.548 357.531 703.031 358.835 701.995C360.139 700.96 361.104 699.598 361.731 697.911C362.357 696.223 362.67 694.395 362.67 692.426C362.67 690.457 362.357 688.623 361.731 686.923C361.104 685.222 360.139 683.848 358.835 682.8C357.531 681.751 355.869 681.227 353.849 681.227C351.829 681.227 350.167 681.751 348.863 682.8C347.559 683.848 346.594 685.222 345.968 686.923C345.341 688.623 345.028 690.457 345.028 692.426C345.028 694.395 345.341 696.223 345.968 697.911C346.594 699.598 347.559 700.96 348.863 701.995C350.167 703.031 351.829 703.548 353.849 703.548ZM392.283 677.545V681.764H378.63V707H374.104V677.545H392.283ZM406.027 707.69C404.161 707.69 402.467 707.339 400.946 706.636C399.424 705.92 398.216 704.891 397.321 703.548C396.427 702.193 395.979 700.557 395.979 698.639C395.979 696.952 396.312 695.584 396.976 694.536C397.641 693.474 398.53 692.643 399.642 692.043C400.754 691.442 401.981 690.994 403.324 690.7C404.679 690.393 406.04 690.151 407.408 689.972C409.198 689.741 410.649 689.569 411.761 689.454C412.886 689.326 413.704 689.115 414.216 688.821C414.74 688.527 415.002 688.016 415.002 687.287V687.134C415.002 685.241 414.484 683.771 413.449 682.723C412.426 681.675 410.873 681.151 408.789 681.151C406.628 681.151 404.934 681.624 403.707 682.57C402.48 683.516 401.617 684.526 401.118 685.599L396.823 684.065C397.59 682.276 398.613 680.882 399.891 679.885C401.182 678.875 402.589 678.172 404.11 677.776C405.644 677.366 407.152 677.162 408.635 677.162C409.581 677.162 410.668 677.277 411.895 677.507C413.135 677.724 414.331 678.178 415.481 678.869C416.645 679.559 417.61 680.601 418.377 681.994C419.144 683.388 419.527 685.254 419.527 687.594V707H415.002V703.011H414.772C414.465 703.651 413.954 704.335 413.238 705.063C412.522 705.792 411.569 706.412 410.38 706.923C409.191 707.435 407.741 707.69 406.027 707.69ZM406.718 703.625C408.508 703.625 410.016 703.273 411.243 702.57C412.483 701.867 413.417 700.96 414.043 699.847C414.682 698.735 415.002 697.565 415.002 696.338V692.196C414.81 692.426 414.388 692.637 413.736 692.829C413.097 693.008 412.356 693.168 411.512 693.308C410.681 693.436 409.869 693.551 409.076 693.653C408.297 693.743 407.664 693.82 407.178 693.884C406.002 694.037 404.902 694.286 403.88 694.631C402.87 694.964 402.052 695.469 401.425 696.146C400.812 696.811 400.505 697.719 400.505 698.869C400.505 700.442 401.086 701.631 402.25 702.436C403.426 703.229 404.915 703.625 406.718 703.625ZM433.771 667.727L433.387 695.955H428.938L428.555 667.727H433.771ZM431.163 707.307C430.217 707.307 429.405 706.968 428.727 706.29C428.05 705.613 427.711 704.801 427.711 703.855C427.711 702.909 428.05 702.097 428.727 701.42C429.405 700.742 430.217 700.403 431.163 700.403C432.109 700.403 432.92 700.742 433.598 701.42C434.275 702.097 434.614 702.909 434.614 703.855C434.614 704.482 434.454 705.057 434.135 705.581C433.828 706.105 433.413 706.527 432.888 706.847C432.377 707.153 431.802 707.307 431.163 707.307Z" fill="black"/>
</svg>
